<svg xmlns="http://www.w3.org/2000/svg" width="1600" height="900" viewBox="0 0 1600 900" fill="none">
  <rect width="1600" height="900" fill="#0F172A"/>
  <rect x="72" y="72" width="1456" height="756" rx="36" fill="#111827" stroke="#334155" stroke-width="2"/>
  <rect x="122" y="126" width="540" height="648" rx="28" fill="url(#paint0_linear)"/>
  <rect x="718" y="150" width="520" height="28" rx="14" fill="#60A5FA" fill-opacity="0.9"/>
  <rect x="718" y="206" width="420" height="18" rx="9" fill="#CBD5E1" fill-opacity="0.78"/>
  <rect x="718" y="248" width="360" height="18" rx="9" fill="#94A3B8" fill-opacity="0.72"/>
  <rect x="718" y="324" width="724" height="150" rx="24" fill="#1E293B"/>
  <rect x="748" y="356" width="184" height="18" rx="9" fill="#93C5FD"/>
  <rect x="748" y="396" width="410" height="14" rx="7" fill="#E2E8F0" fill-opacity="0.74"/>
  <rect x="748" y="424" width="356" height="14" rx="7" fill="#CBD5E1" fill-opacity="0.62"/>
  <rect x="718" y="518" width="220" height="200" rx="24" fill="#172554"/>
  <rect x="970" y="518" width="220" height="200" rx="24" fill="#0F766E"/>
  <rect x="1222" y="518" width="220" height="200" rx="24" fill="#7C2D12"/>
  <text x="170" y="228" fill="#E0F2FE" font-family="Segoe UI, Arial, sans-serif" font-size="66" font-weight="700">MiMo-V2-Pro</text>
  <text x="170" y="302" fill="#BFDBFE" font-family="Segoe UI, Arial, sans-serif" font-size="28">Демо-обложка для поста</text>
  <text x="718" y="112" fill="#F8FAFC" font-family="Segoe UI, Arial, sans-serif" font-size="58" font-weight="700">Claude Opus 4.6 бесплатно?</text>
  <text x="718" y="292" fill="#94A3B8" font-family="Segoe UI, Arial, sans-serif" font-size="26">Сравнение, установка и рабочий сценарий в VS Code</text>
  <text x="758" y="650" fill="#DBEAFE" font-family="Segoe UI, Arial, sans-serif" font-size="26" font-weight="700">Установка</text>
  <text x="1010" y="650" fill="#CCFBF1" font-family="Segoe UI, Arial, sans-serif" font-size="26" font-weight="700">Сценарии</text>
  <text x="1262" y="650" fill="#FED7AA" font-family="Segoe UI, Arial, sans-serif" font-size="26" font-weight="700">Оценка</text>
  <defs>
    <linearGradient id="paint0_linear" x1="122" y1="126" x2="662" y2="774" gradientUnits="userSpaceOnUse">
      <stop stop-color="#2563EB"/>
      <stop offset="1" stop-color="#7C3AED"/>
    </linearGradient>
  </defs>
</svg>
